<?xml version="1.0" encoding="UTF-8"?><svg id="Layer_2" xmlns="http://www.w3.org/2000/svg" viewBox="0 0 183.52 132.95"><defs><style>.cls-1{fill:#231f20;}</style></defs><g id="Layer_1-2"><path class="cls-1" d="M146.6,77.4c-5.6,0-10.13-4.54-10.13-10.13s4.54-10.13,10.13-10.13c2.8,0,5.33,1.14,7.17,2.97l7.86-7.86c-3.84-3.84-9.15-6.22-15.02-6.22-11.73,0-21.25,9.51-21.25,21.25s9.51,21.25,21.25,21.25c5.87,0,11.18-2.38,15.02-6.22l-7.86-7.86c-1.84,1.83-4.37,2.97-7.17,2.97Z"/><path class="cls-1" d="M41.5,77.4c-5.6,0-10.13-4.54-10.13-10.13s4.54-10.13,10.13-10.13c2.8,0,5.33,1.14,7.17,2.97l7.86-7.86c-3.84-3.84-9.15-6.22-15.02-6.22-11.73,0-21.25,9.51-21.25,21.25s9.51,21.25,21.25,21.25c5.87,0,11.18-2.38,15.02-6.22l-7.86-7.86c-1.84,1.83-4.37,2.97-7.17,2.97Z"/><path d="M0,67.43C.04,41.85,9.38,16.84,26.1.05h0l9.9,9.9c-13.63,13.56-22.04,35.33-22,57.48h0c.02,20.2,6.81,40.43,22,55.62h0l-9.9,9.9C7.92,114.76-.01,90.71,0,67.43H0Z"/><polygon points="18.93 11.12 26.11 0 124.12 89.38 114.58 99.63 18.93 11.12 18.93 11.12"/><path d="M147.51,123.05c15.19-15.19,21.99-35.42,22-55.62h0c.04-22.15-8.37-43.93-22-57.48h0L157.41.05c16.72,16.8,26.06,41.8,26.1,67.38h0c.01,23.29-7.92,47.33-26.1,65.52h0l-9.9-9.9h0ZM147.51,9.95h0s0,0,0,0h0Z"/><polygon points="157.38 .08 164.63 11.07 70.01 101.45 60.35 91.31 157.38 .08"/><path class="cls-1" d="M85.03,109.8c-.11-.67-.46-1.08-.92-1.32s-1.03-.35-1.65-.35c-1.4,0-2.02.41-2.02,1.11,0,2.92,11.17,1.11,11.17,8.18,0,4.51-3.75,6.69-9.1,6.69s-8.48-3-8.61-6.5h6.1c.13.7.51,1.21,1.05,1.54.51.32,1.19.49,1.81.49,1.59,0,2.65-.51,2.65-1.43,0-2.94-11.18-.92-11.18-8.34,0-4.13,3.56-6.21,8.42-6.21,5.4,0,7.86,2.75,8.31,6.15h-6.05Z"/><path class="cls-1" d="M94.51,123.6v-19.43h15.12v4.53h-8.75v3.54h6.96v4.54h-6.96v6.83h-6.37Z"/></g></svg>