<?xml version="1.0" encoding="UTF-8"?><svg id="Layer_2" xmlns="http://www.w3.org/2000/svg" xmlns:xlink="http://www.w3.org/1999/xlink" viewBox="0 0 330.68 330.69"><defs><style>.cls-1{fill:none;}.cls-2{fill:#231f20;}.cls-3{clip-path:url(#clippath-1);}.cls-4{fill:#fff;}.cls-5{clip-path:url(#clippath);}.cls-6{fill:#bae0f7;}</style><clipPath id="clippath"><rect class="cls-1" width="330.68" height="330.69"/></clipPath><clipPath id="clippath-1"><rect class="cls-1" y="0" width="330.68" height="330.68"/></clipPath></defs><g id="Layer_1-2"><g id="Vector_Smart_Object"><g class="cls-5"><g class="cls-3"><path class="cls-4" d="M330.68,165.33c0,91.36-74.03,165.37-165.35,165.37S0,256.69,0,165.33,74.03,0,165.33,0s165.35,74.03,165.35,165.32"/><path class="cls-6" d="M165.85,90.03h.53c25.51,0,48.12,12.77,61.78,32.31h77.91c-18.44-59.81-74.02-103.19-139.69-103.19h-1.23c-65.28.46-120.31,43.8-138.55,103.19h77.98c13.48-19.36,35.85-32.15,61.26-32.31"/><path class="cls-6" d="M166.87,240.66h-.56c-25.96.06-48.93-13.2-62.48-33.29H26.4c18.09,60.32,73.89,104.17,139.91,104.17h.85c65.94-.44,121.25-44.27,139.17-104.17h-77.43c-13.47,19.97-36.19,33.19-62.04,33.29"/><polygon class="cls-2" points="48.03 133.78 49.39 133.86 50.45 133.86 51.13 133.98 51.94 134.31 52.95 134.45 53.66 134.51 54.54 135.26 55.93 136.17 56.61 136.51 57.33 137.58 57.79 138.11 58.36 138.91 59.74 140.42 60.62 140.62 61.08 140.42 61.55 140.29 62.84 139.35 63.88 138.48 64.45 137.31 64.2 136.51 64.8 135.02 65.45 134.51 66.51 134.22 68.77 134.8 69.29 134.8 70.61 135.5 70.84 135.93 71.28 136.17 72.23 136.51 73.26 137.31 73.71 137.45 74.66 137.58 75.23 137.91 76.94 138.58 78.07 139.16 78.51 139.35 79.24 139.76 80.35 139.84 81.33 140.09 82 140.23 82.79 140.76 83.73 140.95 84.17 141.64 84.54 142.26 84.54 142.95 83.33 145.13 82.55 145.47 82.11 147.33 81.56 147.9 81.33 148.65 81.42 149.27 81.04 150.51 81.04 150.96 80.98 152.15 80.84 156.3 80.24 156.82 80.84 157.65 80.5 159.83 80.35 160.98 80.24 161.77 79.91 162.31 80.04 164.3 80.5 166.12 80.5 166.95 80.98 168.24 80.84 169.35 80.84 170.1 80.35 172.3 80.5 173.25 80.58 173.92 80.5 174.36 80.84 175.91 80.35 176.56 80.7 177.01 80.98 177.35 81.04 178.87 81.42 179.79 83.85 181.16 84.83 182.18 84.75 183.33 84.1 184.47 82.88 185.84 82 185.98 81.33 187.1 80.04 188.37 79.59 188.81 79.24 190.7 79.47 191.55 80.04 192.62 80.35 193.33 79.91 194.61 79.13 195.52 78.65 195.52 77.18 195.4 76.49 195.15 75.41 194.73 74.43 193.91 73.71 193.41 72.93 192.42 72.04 191.93 72.37 191.33 71.7 189.98 70.75 190.77 69.92 189.77 69.29 189.17 66.36 188.04 65.88 187.83 65.45 187.72 65.28 186.97 64.8 186.65 64.58 185.42 64.89 184.37 66.24 183.55 66.68 183.33 67.53 181.71 67.77 179.99 67.77 177.01 68.3 176.88 67.53 176.56 67.53 175.03 67.77 174.04 67.77 173.25 67.44 172.62 67.11 171.21 66.98 170.75 66.98 170.1 66.68 169.66 66.68 168.64 67.11 168.07 67.11 167.14 66.86 166.62 66.68 166.12 66.68 164.82 67.33 163.84 67.44 163.1 66.98 162.45 66.98 161.99 67.33 160.98 67.11 160.25 66.98 159.05 67.33 158.1 67.33 157.72 67.44 157.06 67.53 155.14 67.65 154.55 68.44 152.56 69.01 150.51 69.92 149.6 69.18 148.76 68.67 148.32 67.11 147.54 66.24 147.08 64.45 146.24 63.94 145.79 61.55 145.35 60.3 145.92 59.64 146.87 59.64 147.54 60.2 149.6 59.83 150.51 59.83 151.08 59.83 151.77 59.23 152.93 58.91 153.87 59.01 155.02 59.74 156.37 59.83 157.51 59.99 158.18 60.11 159.7 59.83 160.98 59.99 162.77 59.99 163.49 59.99 164.82 59.99 166.24 59.74 167.26 59.99 168.24 59.99 169.02 59.99 171.63 59.74 172.62 59.83 173.25 59.64 173.92 59.99 176.7 59.99 177.23 60.2 178.38 60.11 180.16 60.51 180.16 61.22 179.99 62.49 180.49 63.39 181.4 63.51 182.04 63.3 183.11 62.72 183.87 62.03 184.84 59.99 186.44 59.34 187.1 59.01 187.5 58.12 188.71 57.79 190.25 57.67 190.7 58.25 192.17 58.58 193.41 58.25 194.73 57.58 195.4 56.3 195.61 55.26 195.52 52.95 194.31 51.67 193.41 51.29 193.08 51.01 192.55 49.94 191.66 48.71 190.57 47.7 189.54 46.31 188.5 45.26 187.83 44.03 187.5 43.44 186.44 43.23 185.08 44.09 184.37 45.03 183.33 45.26 182.67 45.65 181.71 45.84 181.16 46.16 179.52 46.31 178.97 46.48 178.18 46.48 177.71 46.64 176.33 46.47 175.91 46.48 174.04 46.74 173.25 46.74 171.73 46.74 170.98 46.74 170.2 46.47 169.66 46.89 168.76 46.74 168.36 46.47 165.92 46.48 164.72 46.74 160.98 46.64 159.6 46.48 157.85 47.09 156.01 46.96 155.33 46.96 153.98 46.64 152.56 46.48 150.28 46.47 149.38 46.16 148.9 45.84 148 44.6 147.33 43.58 146.87 41.15 145.69 40.47 145.79 39.64 145.79 39.11 146.24 38.52 147.08 38.41 148 38.41 148.53 38.16 149.85 38.16 150.39 38.06 150.83 38.06 151.57 38.16 153.87 38.06 154.31 38.41 155.87 38.41 156.94 38.41 157.4 38.62 158.32 37.9 160.69 38.16 161.66 37.9 162.31 38.06 163.01 38.06 164.82 38.16 165.55 38.06 167.97 37.9 168.64 37.9 169.35 37.78 170.1 37.9 170.87 38.06 171.53 38.06 172.3 38.06 172.85 38.06 175.03 38.06 177.56 38.41 178.97 38.94 179.79 39.51 179.87 41.06 179.99 41.47 180.62 42.15 180.96 42.38 181.52 42.49 182.04 42.15 183.33 41.59 184.14 40.69 185.17 40.06 185.52 39.51 186.07 38.94 186.31 37.9 187.1 36.54 188.62 36.22 190.25 36.9 191.47 37.12 193.33 36.44 194.61 35.39 195.4 34.6 195.52 34.06 195.31 33.71 195.15 32.39 194.82 31.51 193.99 30.55 193.41 29.87 192.88 29.09 191.93 28.05 191.14 27.59 190.91 26.93 190.25 24.41 188.5 23.66 188.15 21.99 187.23 21.16 187.1 20.44 186.31 20.24 185.08 20.35 184.47 20.83 183.87 21.68 183.33 22.77 182.67 23.22 182.18 23.95 180.62 24.56 179.07 24.74 178.55 24.41 178.09 24.41 176.24 24.56 175.56 24.61 174.36 24.61 173.38 24.84 172.07 24.84 171.4 24.93 169.1 25.08 167.97 25.16 168.36 24.61 166.8 24.56 166.04 25.16 165.4 25.85 165.62 25.85 164.39 24.93 163.72 24.74 163.01 24.56 161.77 24.93 160.04 24.84 158.81 25.08 156.49 24.93 155.66 24.84 154.75 24.56 153.26 24.74 152.56 24.41 151.9 24.41 150.06 23.95 149.6 23.55 149.05 22.66 148.9 21.06 148.76 20.02 148.23 19.25 147.2 19.48 145.13 20.02 144.69 20.35 143.93 22.77 141.96 23.32 141.08 23.83 140.29 24.16 139.35 24.56 138 24.16 137.11 24.05 135.71 24.16 135.13 24.74 134.45 25.78 133.98 27.92 133.98 30.02 134.22 31.63 134.69 33.57 135.5 33.93 135.71 34.6 136.51 35.77 137.31 36.32 138.35 36.9 139.02 37.12 139.35 37.78 140.29 38.28 140.56 39.28 141.22 39.83 141.41 41.15 141.41 43 140.95 44.03 140.42 44.48 140.09 45.38 139.25 45.51 138.78 46.31 137.79 46.31 137.31 46.16 136.03 46.31 135.6 46.96 134.45 48.03 133.78"/><polygon class="cls-2" points="93.91 133.86 95.08 133.98 96.1 134.11 96.43 134.51 96.98 134.51 97.98 135.15 98.83 136.17 99.41 136.36 99.94 136.63 100.47 137.19 101.94 138.11 102.79 138.91 103.77 140.29 104.58 140.88 105.33 140.96 106.54 141.08 107.13 141.33 108.05 141.96 108.82 142.9 108.82 143.28 108.31 144.7 107.34 146.24 106.74 146.5 106.09 146.75 105.72 147.9 105.42 149.92 105.42 150.29 105.42 150.95 105.33 152.81 105.06 155.54 105.2 157.15 105.2 157.86 105.2 159.15 105.06 160.04 104.95 161.11 104.58 161.54 104.11 163.1 104.11 163.71 104.73 164.82 105.2 165.08 105.66 166.11 105.66 167.8 105.51 169.55 104.58 170.11 105.66 170.87 105.51 171.63 105.42 172.52 105.66 173.38 105.72 177.86 105.97 179.34 106.19 179.86 106.54 180.35 107.46 180.84 108.31 181.07 109.02 181.51 109.66 182.04 110.12 182.56 110.03 183.21 109.66 183.87 108.69 185.42 107.7 185.97 106.54 186.97 105.2 188.16 104.01 189.98 103.77 190.46 103.67 191.14 104.01 192.11 104.34 192.88 104.34 193.8 104.01 194.61 102.79 195.61 100.81 195.4 99.74 194.93 98.83 194.61 98.31 194.12 96.98 193.08 95.89 191.8 95.32 191.67 93.58 190.24 92.05 189.54 89.75 188.64 89.2 188.49 88.5 188.38 87.84 188.05 87.61 187.38 87.14 186.9 86.94 186.08 87.14 184.64 87.95 183.99 88.99 183.11 89.75 182.18 89.85 181.41 90.39 180.16 90.62 179.68 90.73 178.87 90.62 178.09 90.95 176.76 90.62 175.44 90.95 174.03 90.95 171.72 91.07 170.32 90.85 169.35 91.18 168.56 91.42 167.6 91.42 166.11 91.42 163.84 91.42 162.67 91.18 161.99 90.73 160.7 90.85 160.04 91.27 159.27 91.18 157.39 91.42 156.3 91.27 155.66 90.95 154.31 91.07 153.74 90.95 151.9 90.62 150.38 90.23 149.59 89.85 149.13 88.99 149.13 88.3 148.9 87.84 148.43 87.36 148.1 87.14 147.09 87.36 145.47 88.21 144.7 88.87 143.81 89.28 143.65 90.55 142.62 91.27 141.63 91.52 140.96 92.05 140.29 92.72 139.9 92.79 139.35 92.72 137.79 92.17 136.26 92.17 135.72 92.72 135.01 93.58 134.32 93.91 133.86"/><polygon class="cls-2" points="134.26 132.87 134.88 133 136.86 133.66 137.33 133.98 137.83 134.31 139.27 134.94 139.85 135.26 140.8 135.71 141.38 136.03 143.19 136.97 146.63 138.91 147.92 139.02 149.46 138.26 150.87 137.66 151.99 137.79 152.53 137.74 153.16 138.26 153.85 139.5 153.71 140.76 153.62 141.34 152.39 143.03 150.75 144.14 150.22 144.46 149.38 145 148.56 145.47 147.7 146.12 146.71 146.5 146.63 147.33 146.14 147.75 146.07 148.65 146.2 149.27 146.29 150.28 145.93 151.45 145.51 152.03 144.75 152.36 143.53 152.48 142.73 152.36 140.55 151.7 140.08 151.08 139.59 150.95 138.94 150.39 136.35 148.53 134.69 147.33 133.71 146.33 132.62 145.58 132.16 145 131.69 144.88 130.23 143.54 130.82 145 131.07 146.12 131.07 146.67 131.07 148.24 130.91 149.05 130.82 149.86 130.82 151.18 130.82 151.9 130.91 153.16 131.4 154.22 132.71 155.13 133.38 155.2 133.88 155.33 134.26 155.54 135.12 155.54 137.19 156.29 138.09 156.37 140.69 156.94 141.58 156.94 143.11 157.73 144.75 158.18 145.61 158.81 146.53 159.05 147.07 159.15 147.92 159.35 148.94 159.92 150.22 161.53 150.54 163.23 150.33 163.96 150.66 164.72 150.44 165.92 150.33 167.35 150.44 167.8 150.54 169.88 150.22 170.98 150.22 171.97 150.17 172.4 149.89 174.58 149.97 175.18 149.89 175.69 149.89 176.1 149.89 177.98 149.97 178.55 149.97 179.79 150.22 180.49 151.11 181.16 151.34 181.81 151.34 182.3 150.75 183.46 149.74 184.47 149.12 184.47 147.35 184.65 145.97 185.31 145.05 185.42 143.85 185.42 142.32 185.98 141.26 186.65 139.92 186.31 139.5 187.23 138.62 187.72 136.21 188.5 135.63 188.97 134.47 190.7 134.88 192.3 134.88 192.76 134.55 194.08 133.55 195.15 132.16 195.61 131.24 195.52 130.56 195.61 127.79 194.62 126.91 193.9 125.71 193.33 125.38 192.95 124.49 192.3 124.16 192.1 122.98 191.03 122.52 190.57 121.84 189.98 121.17 189.54 119.47 188.5 118.18 188.04 116.2 188.04 114.53 189.29 114.09 190.57 113.78 191.47 113.95 192.76 114.16 193.23 114.62 193.65 115.52 194.12 116.08 193.99 117.19 193.65 117.58 193.33 118.65 193.33 119.71 193.65 120.36 194.32 120.78 194.82 121.06 195.3 121.17 196.75 121.06 197.12 120.78 197.93 120.13 199.04 119.13 200.1 117.04 200.56 116.2 200.56 114.95 200.56 114.29 200.19 113.78 200.1 113.33 200.19 112.77 199.77 111.86 199.16 110.14 197.55 109.79 197.12 109.49 196.52 108.74 194.73 108.74 194.08 108.4 192.17 108.3 190.91 108.3 190.15 108.74 188.62 109.13 187.39 109.49 186.65 109.68 186.19 110.61 184.37 111.01 183.99 111.77 183.67 113.25 182.56 114.84 181.52 115.76 180.82 116.2 180.49 116.82 179.53 117.26 178.63 117.37 177.98 117.26 177.01 117.58 175.91 119.13 174.37 120.24 174.18 122.61 174.37 123.46 174.85 124.94 175.57 126.44 176.44 127.67 177.35 128.12 177.86 129.3 178.63 130.31 178.31 131.24 179.33 134.04 180.89 135.54 181.52 136.86 181.61 137.67 181.52 138.09 181.06 138.41 180.23 136.68 178.18 135.87 176.44 135.76 175.91 135.63 174.85 135.87 171.97 135.63 170.25 135.06 169.88 133.55 169.35 132.71 169.09 131.91 168.65 131.07 168.42 130.06 168.23 129.77 167.7 127.25 167.26 126.44 167.26 125.19 166.71 123.07 165.92 122.42 165.55 121.52 165.29 119.35 164.06 118.65 163.23 117.37 161.66 117.06 160.69 116.82 158.32 116.69 157.06 116.69 155.54 116.69 154.09 117.06 152.94 117.19 152.36 117.26 151.7 117.19 150.73 117.37 149.86 117.04 149.27 117.19 148.43 117.58 147.54 117.19 146.75 116.82 145.14 115.41 144.07 115.2 143.54 115.29 142.26 115.76 141.55 116.49 140.95 117.48 140.62 117.94 140.62 118.49 140.76 119.71 140.56 120.13 140.42 121.84 139.96 123.21 140.29 123.93 140.09 124.6 139.77 126.02 139.35 126.91 139.35 128.32 139.15 128.87 138.91 129.3 138.78 130.23 138.48 130.56 138 130.82 137.19 130.56 136.03 130.68 135.51 130.91 134.8 132.16 133.54 133.12 133.06 134.26 132.87"/><polygon class="cls-2" points="176.92 132.87 177.55 133 179.55 133.66 179.99 133.98 180.52 134.31 181.98 134.94 182.51 135.26 183.51 135.71 184.05 136.03 185.89 136.97 189.34 138.91 190.61 139.02 192.17 138.26 193.59 137.68 194.69 137.74 195.19 137.79 195.89 138.26 196.56 139.5 196.42 140.76 196.33 141.34 195.07 143.03 193.44 144.14 192.88 144.46 192.05 145 191.26 145.47 190.38 146.12 189.43 146.5 189.34 147.33 188.85 147.75 188.75 148.65 188.85 149.27 188.97 150.28 188.64 151.45 188.22 152.03 187.46 152.36 186.24 152.48 185.46 152.36 183.25 151.7 182.72 151.08 182.3 150.95 181.64 150.39 178.96 148.53 177.35 147.33 176.36 146.33 175.28 145.58 174.85 145 174.39 144.88 172.88 143.54 173.51 145 173.72 146.12 173.72 146.67 173.72 148.24 173.62 149.05 173.51 149.86 173.51 151.18 173.51 151.9 173.62 153.16 174.06 154.22 175.42 155.13 176.03 155.2 176.56 155.33 176.92 155.54 177.85 155.54 179.89 156.29 180.75 156.37 183.4 156.94 184.27 156.94 185.79 157.73 187.46 158.18 188.31 158.81 189.2 159.05 189.74 159.15 190.61 159.35 191.59 159.92 192.88 161.53 193.24 163.23 193.01 163.96 193.34 164.72 193.11 165.92 193.01 167.39 193.11 167.8 193.24 169.88 192.88 170.98 192.88 171.97 192.88 172.4 192.55 174.58 192.66 175.18 192.55 175.66 192.55 176.1 192.55 177.98 192.66 178.55 192.66 179.79 192.88 180.49 193.78 181.16 193.99 181.81 193.99 182.3 193.44 183.46 192.42 184.47 191.82 184.47 190.03 184.65 188.64 185.31 187.76 185.42 186.56 185.42 185.03 185.98 183.94 186.65 182.66 186.31 182.19 187.23 181.31 187.72 178.87 188.5 178.34 188.97 177.15 190.7 177.55 192.3 177.55 192.76 177.26 194.08 176.24 195.15 174.85 195.61 173.95 195.52 173.23 195.61 170.46 194.62 169.55 193.9 168.43 193.33 168.09 192.95 167.19 192.3 166.87 192.1 165.66 191.03 165.2 190.57 164.55 189.98 163.86 189.54 162.13 188.5 160.89 188.04 158.9 188.04 157.21 189.29 156.73 190.57 156.47 191.47 156.66 192.76 156.89 193.23 157.32 193.65 158.19 194.08 158.77 193.99 159.85 193.65 160.29 193.33 161.36 193.33 162.35 193.65 163.05 194.32 163.48 194.82 163.73 195.3 163.86 196.75 163.73 197.12 163.48 197.93 162.82 199.04 161.85 200.1 159.7 200.56 158.9 200.56 157.66 200.56 156.98 200.19 156.47 200.1 156.01 200.19 155.48 199.77 154.57 199.16 152.81 197.55 152.49 197.12 152.13 196.52 151.41 194.73 151.41 194.12 151.11 192.17 151 190.91 151 190.15 151.41 188.62 151.82 187.39 152.13 186.65 152.36 186.19 153.28 184.37 153.71 183.99 154.48 183.67 155.92 182.56 157.54 181.52 158.44 180.82 158.9 180.49 159.52 179.53 159.97 178.63 160.08 177.98 159.97 177.01 160.29 175.91 161.85 174.37 162.9 174.18 165.32 174.37 166.17 174.85 167.64 175.57 169.14 176.44 170.37 177.35 170.83 177.86 171.97 178.63 173.01 178.31 173.95 179.33 176.68 180.96 178.22 181.52 179.55 181.61 180.33 181.52 180.75 181.06 181.08 180.23 179.33 178.18 178.54 176.44 178.43 175.91 178.34 174.85 178.54 171.97 178.34 170.25 177.67 169.88 176.24 169.35 175.42 169.09 174.64 168.69 173.72 168.42 172.78 168.23 172.46 167.7 169.9 167.26 169.14 167.26 167.86 166.71 165.78 165.92 165.08 165.55 164.23 165.29 162.03 164.06 161.36 163.23 160.08 161.66 159.7 160.69 159.52 158.32 159.36 157.06 159.36 155.54 159.36 154.09 159.7 152.94 159.85 152.36 159.97 151.7 159.85 150.73 160.08 149.86 159.7 149.27 159.85 148.43 160.29 147.54 159.85 146.75 159.52 145.14 158.09 144.07 157.87 143.54 157.98 142.26 158.44 141.55 159.18 140.95 160.17 140.62 160.63 140.62 161.17 140.76 162.35 140.56 162.82 140.42 164.55 139.96 165.89 140.29 166.61 140.09 167.26 139.77 168.66 139.35 169.55 139.35 170.98 139.15 171.55 138.91 171.97 138.78 172.88 138.48 173.23 138 173.51 137.19 173.23 136.03 173.39 135.51 173.62 134.8 174.85 133.54 175.81 133.06 176.92 132.87"/><polygon class="cls-2" points="205.24 133.86 206.43 133.98 207.45 134.11 207.78 134.51 208.35 134.51 209.32 135.15 210.19 136.17 210.76 136.36 211.27 136.63 211.78 137.19 213.27 138.11 214.11 138.91 215.12 140.29 215.9 140.88 216.61 140.96 217.86 141.08 218.49 141.33 219.37 141.91 220.19 142.9 220.19 143.28 219.59 144.7 218.7 146.24 218.1 146.5 217.4 146.75 217.14 147.9 216.73 149.92 216.73 150.29 216.73 150.95 216.61 152.81 216.42 155.54 216.55 157.15 216.55 157.86 216.55 159.15 216.42 160.04 216.28 161.11 215.9 161.54 215.43 163.1 215.43 163.71 216.08 164.82 216.55 165.08 216.99 166.11 216.99 167.8 216.86 169.55 215.94 170.11 216.99 170.87 216.86 171.63 216.73 172.52 216.99 173.38 217.14 177.86 217.32 179.34 217.55 179.86 217.86 180.35 218.82 180.84 219.59 181.07 220.41 181.51 221.01 182.04 221.45 182.56 221.34 183.21 221.01 183.87 220.04 185.42 219.06 185.97 217.86 186.97 216.55 188.16 215.33 189.98 215.12 190.46 215.01 191.14 215.33 192.11 215.67 192.88 215.67 193.8 215.33 194.61 214.11 195.61 212.12 195.4 211.08 194.93 210.19 194.61 209.65 194.12 208.35 193.08 207.22 191.8 206.67 191.67 204.93 190.24 203.4 189.54 201.12 188.64 200.54 188.49 199.86 188.38 199.15 188.05 198.92 187.38 198.49 186.9 198.27 186.1 198.49 184.64 199.33 183.99 200.33 183.11 201.12 182.18 201.23 181.41 201.74 180.16 201.97 179.68 202.04 178.87 201.97 178.09 202.3 176.76 201.97 175.44 202.3 174.03 202.3 171.72 202.4 170.32 202.17 169.35 202.51 168.56 202.73 167.6 202.73 166.11 202.73 163.84 202.73 162.67 202.51 161.99 202.04 160.7 202.17 160.04 202.62 159.27 202.51 157.39 202.73 156.3 202.62 155.66 202.3 154.31 202.4 153.74 202.3 151.9 201.97 150.38 201.57 149.59 201.23 149.13 200.32 149.13 199.65 148.9 199.15 148.43 198.7 148.1 198.49 147.09 198.7 145.47 199.55 144.7 200.23 143.81 200.69 143.65 201.87 142.62 202.62 141.63 202.84 140.96 203.4 140.29 204.02 139.9 204.16 139.35 204.02 137.79 203.56 136.26 203.56 135.72 204.02 135.01 204.93 134.32 205.24 133.86"/><path class="cls-2" d="M243.13,133.46h.6l1.27.07,2.6,1.28.57.91,1.1.31,3.59,2.74.98.47,1.66.92.5.27.67.2.7.25,1.58.68,1.43.36,1.81,1.24.24,1.31-.14.67-.32.66-.35.45-.35,1.65.12.64v.73l-.46,1.58-.24,1.52.38,1.73-.35,1.23v.55l.09.75-.09.52v1.53l-.24.59v1.03l.12.69-.12,1.33v.91l.24.5.09.91-.09.65-.24,1.08.33,1.24v.96l-.13.53-.31,2.19-.28.45.5.35-.22.45.43,2.92.26,1.58-.26.34.11.74-.11.54.37,1.05,1.01.32.94,1.29v.43l-.52.84-.43.66-.47.24-1.49.34-.44.2-.58.38h-.8l-.82.09-.8.37-.89.24-2.15,1.01-1.25.36-2.02.8-.48.27-2.51,1.12-.88.78-.45.75.1.88.57,1.07.2,1.31-.42.9-1.98,1.3-1.41-.08-.53-.22-.47-.15-.34-.34-1.49-.91-1.26-.25-.22-.43-.92-.1-.47-.24-.43-.33-.82-.38-.45-.51-1.83-.97-1.48-1.29-2.95-1.35-.88-.33-.68-.34-.54-.29h-.45l-1.42-.66-.78-.26-.73-1,.38-1.19,1.35-1.61.27-.66.44-.98.32-1.31.15-1.33.15-.38.3-2.53.13-2.66.55-.45-.68-.67v-3.6l-.14-.66.27-1.03-.13-.57-.14-1.59.49-1.51v-.68l-.49-.78.14-.69.35-1.15-.49-.47-.06-1.03v-1.54l.2-.57-.2-.68-.1-.77.1-1.73-.1-.91-.15-1.99-.59-1.46-.66-.46-.71-.79-.24-.96.12-.33.33-.59.22-.41,1.37-.61,1.18-.31,1.01-.17,1.52-.34.61-.08,1.59-.46,1.45-.54,2.55-.73,1.03-.93,1.35-.79,1.04-.93.56-.99.24-.75-.15-1.24.15-.45.47-.82.92-.66.77-.2ZM240.62,145.26l-.92.33v.66l.13.5.43.91v2.19l.13,2.05v1.47l.11.51v3.18l-.11.92.24.7v1.82l.1.7.09.91-.19,1-.24,1.2.81,1.75v.43l-.57,1.49.1.79-.1.91-.36.96.24.45-.24,1.12-.2,2.19-.23,1.4-.44,1-.62,1.33-.22.54.5.57,1.68.67.72.13h.44l1.49.36h1.04l.59.14,2.28.46h.66l1.21-.13.18-.83v-.47l-1.29-1.43-.69-1.21-.32-2.18.12-.79.2-2.85.14-1.19v-.66l-.14-.3.14-1.12-.21-.54.07-1.98.82-.78.1-.45-.67-1.28.12-1.01.55-1.28-.78-.89v-.55l-.21-1.4v-2.19l-.25-.91.25-1.06v-1.25l.21-.78-.14-1.07.25-.92.44-.92v-.87l-1.65.43-.73-.2-.82-.24-.86-.58-.85-.59-.66-.71-1.5-.44-.34-.1Z"/><path class="cls-2" d="M289.99,134.11h1.48l1.82.7.38.57.76.22.93.34.82.69.67.08.55.26,1.08.82.91.79,1.73,1.05,1.84.54,3.29.4.7.2.06.47,1.33.41.08.85-.08,1.36-1.07,1.5-.67,1.85-.33,1.45-.1,1.06v2.33l-.12.66-.25,1.86.11.66.14,1.86-.14.79-.84,2.19v.45l-.1.71.24.57v.91l-.37,2.61.37.34v1.77l.25,2.71.22,1.1v2.71l-.09,1.11v1.99l.32,1.08.14.45.67.65.22.47.54.57,3.45,1.17.51,1.16-.15,1.24-1.12.84-1.19.78-.88.56-.71.58-1.12.34-1.43,1.6-.8,1.65.14.61.34.89v.64l.24.65.22,1.13-.22.73-.72.8-1.08.45h-1.31l-.66-.34-.96-.58-.76-.34-.59-.2-.71-.82-.57-.38-.55-.78-1.28-.32-.1-1.03-.91-1.12-.58-.51-.4-.35-.73-.41-1.01-.39-.67-.34-1.11-.77-.34-1.2.13-.87,1.42-1.32.57-.32.66-1.12v-.51l.1-1.42.1-.96-.2-.47v-.45l-.12-.88v-1.17l-.33-2.52.1-1.41-.25-.46.15-2.1-.15-.33-.17-.66-.03-.57.2-.84.15-.41.1-.69.14-.66.54-.42-.68-.07v-1.71l.14-.74.09-1.57.12-.54-.12-1.16.12-.57-.21-.82.21-1.05.1-1.39-.1-.68.2-.91.73-3.33.23-1.03.64-.45-1.15-.33-.87-.5-1.25-.67-.73-.56-.78-.54h-.46l-.97-.51-1.46-1.03-1.17-.34-1.73-.26-.66.38-.32.78.1.63.55.99.49.66.26.8.08.73.22,1.42.12,2.94v.33l.12.47-.12.64.2.83v1.61l-.08,1.04-.46.45-.72.33.72.44.11.63.43,2.4.11,1.12.13.78.12.83-.24.83.13.66.12.64v.68l-.12.43-.13,1.4v.78l.13,1.85-.55,2.53-.31,1.32-.64.75-.23.77v.92l.61.33.8.17,1.35.34.82.13.68.2,1.07.79v1.5l-.37,1.03-.52.5-1.19,1.43-1.96,1.42-.34.46-.72.2-.55,1.61-.68.8.57.98.11.38.44.82-.12,1.44-.67.75-2.17.68-.8-.22-1.16-.46-.7-.32-.75-1.06-1.05-.67-1.5-.95-.68-1.17-.46-.3-.8-.31-1.05-.86-.89-.48h-.59l-1.08-.31-.43-.2-.54-.34-.58-.57-.24-.61.12-1.35.34-.78,1.03-.84.82-.47.93-2.37.1-1.62-.1-.79.1-1.4.37-.59v-.66l-.15-.58.22-.96-.07-.79v-.73l.07-.42-.3-1.03v-1.42l.54-1.42v-1.61c0-.4-.02-.68-.13-.83l.13-.5v-.9l-.31-.54.18-1.17.13-2.97v-1.86l-.13-.52v-1.03l-.11-.75-.07-.42-.23-.71v-.43l.08-.45.22-.5-.07-.8.07-.54-.54-2.18-3.11-.15-.47-.11-1.46-1.07-.35-1.33.68-1.73.66-.78.47-.13.69-.82.7-.83.76-.87,1.08-1.09-.13-.39.23-.4.24-.39v-.52l-.14-.47-.1-.43-.23-1.24.13-1.08,1.34-1.52.77-.2.31.2,2.05.17.44.13.91.21.85.12,2.03.8h.61l1.34.91.7.47.81.94.69.76.55.75.83.79.54.07,1.53-.21,1.7-1.51.61-1.12.11-.47-.48-1.14.37-1.37,1.36-.7Z"/></g></g></g></g></svg>